Cover
 
http://images.net63.net/short_url/?GANJJ


Screens
 
http://images.net63.net/short_url/?FCYXX
 
http://images.net63.net/short_url/?NBJTL
 
http://images.net63.net/short_url/?QGSYY
 
http://images.net63.net/short_url/?XOETL
 
http://images.net63.net/short_url/?EEROS
 
http://images.net63.net/short_url/?DFYWP




Complete name                            : C:\Users\MrTPB\Desktop\Top.Gear.At.The.Movies.2011.480p.BRRip.Ac3.Xvid.ANALOG\T.G.A.T.M.480P.BRR.ANALOG.avi


Format                                   : AVI
Format/Info                              : Audio Video Interleave
Format profile                           : OpenDML
File size                                : 2.01 GiB
Duration                                 : 1h 13mn
Overall bit rate                         : 3 932 Kbps
Writing library                          : VirtualDub build 32842/release

Video
ID                                       : 0
Format                                   : MPEG-4 Visual
Format profile                           : Advanced Simple@L5
Format settings, BVOP                    : 1
Format settings, QPel                    : No
Format settings, GMC                     : No warppoints
Format settings, Matrix                  : Default (H.263)
Muxing mode                              : Packed bitstream
Codec ID                                 : XVID
Codec ID/Hint                            : XviD
Duration                                 : 1h 13mn
Bit rate                                 : 3 471 Kbps
Width                                    : 852 pixels
Height                                   : 480 pixels
Display aspect ratio                     : 16:9
Frame rate                               : 25.000 fps
Color space                              : YUV
Chroma subsampling                       : 4:2:0
Bit depth                                : 8 bits
Scan type                                : Progressive
Compression mode                         : Lossy
Bits/(Pixel*Frame)                       : 0.340
Stream size                              : 1.78 GiB (88%)
Writing library                          : XviD 64

Audio
ID                                       : 1
Format                                   : AC-3
Format/Info                              : Audio Coding 3
Mode extension                           : CM (complete main)
Codec ID                                 : 2000
Duration                                 : 1h 13mn
Bit rate mode                            : Constant
Bit rate                                 : 448 Kbps
Channel(s)                               : 6 channels
Channel positions                        : Front: L C R, Side: L R, LFE
Sampling rate                            : 48.0 KHz
Bit depth                                : 16 bits
Compression mode                         : Lossy
Stream size                              : 235 MiB (11%)
Alignment                                : Aligned on interleaves
Interleave, duration                     : 40 ms (1.00 video frame)
Interleave, preload duration             : 512 ms
Sample                                   : Yes
Source                                   : Top.Gear.At.The.Movies.2011.Bluray.x264.DTS-HDC  THANX 
As humans, we perceive the world in analog. Everything we see and hear is a continuous transmission of information to our senses.
analog.p.2.p@********.com
GREATINGS TO ALL THE P2P PLACES I LURK AT!!